<svg aria-hidden="true" style="position: absolute; width: 0; height: 0; overflow: hidden;" version="1.1" xmlns="http://www.w3.org/2000/svg" xmlns:xlink="http://www.w3.org/1999/xlink">
<defs>
<symbol id="icon-logo" viewBox="0 0 233 32">
<path d="M19.471 17.348h-13.192v12.649h-6.28v-29.997h21.368v5.24h-15.089v6.822h13.192v5.286zM32.201 25.66c3.569 0 5.376-2.259 5.376-6.776s-1.807-6.731-5.376-6.731-5.376 2.214-5.376 6.731c0 4.518 1.807 6.776 5.376 6.776zM32.201 30.584c-7.183 0-11.43-4.789-11.43-11.701 0-7.048 4.382-11.701 11.43-11.701 6.957 0 11.294 4.608 11.294 11.701 0 7.048-4.382 11.701-11.294 11.701zM59.716 21.956h5.918c-0.632 5.15-4.834 8.629-10.21 8.629-6.054 0-10.21-4.021-10.21-11.972s4.156-11.43 10.391-11.43c5.783 0 9.713 3.298 10.074 8.538h-5.918c-0.316-2.304-1.988-3.659-4.201-3.659-2.485 0-4.518 1.581-4.518 6.415s2.033 7.183 4.337 7.183c2.304 0 4.111-1.31 4.337-3.704zM87.384 29.997h-5.559v-3.117c-1.536 2.53-3.84 3.704-6.912 3.704-4.427 0-7.544-3.298-7.544-8.177v-14.637h5.873v13.734c0 2.801 1.265 4.156 3.75 4.156 2.982 0 4.563-2.123 4.563-5.060v-12.83h5.828v22.227zM108.979 14.502h-5.647c-0.316-2.168-1.491-2.936-4.156-2.936-2.214 0-3.479 0.542-3.479 1.852s1.22 1.852 3.614 2.53c2.53 0.723 4.924 1.22 6.641 1.897 2.349 0.949 3.659 2.485 3.659 5.376 0 4.608-3.388 7.364-9.713 7.364-6.822 0-10.616-3.208-10.707-7.725h6.054c0 2.078 1.762 3.298 4.608 3.298 2.078 0 3.93-0.632 3.93-2.304 0-1.581-1.672-2.078-3.569-2.53-3.75-0.904-5.828-1.536-7.409-2.53-2.078-1.31-2.801-3.027-2.801-5.015 0-3.75 2.575-6.596 9.352-6.596 6.415 0 9.306 2.53 9.623 7.319zM117.412 29.997h-6.278v-6.099h6.28v6.099zM139.031 17.348h-13.192v12.649h-6.28v-29.997h21.368v5.24h-15.089v6.822h13.192v5.286zM147.494 29.997h-5.873v-22.227h5.512v2.665c1.943-2.982 4.201-3.253 6.596-3.253h0.768v6.008c-0.489-0.086-1.052-0.135-1.626-0.136h-0c-3.614 0-5.376 1.807-5.376 5.376v11.565zM168.495 21.549l0.045-2.44c-0.587 0.587-1.626 0.904-3.795 1.31-3.343 0.632-4.427 1.581-4.427 3.479 0 1.672 0.994 2.485 2.846 2.485 3.027 0 5.286-2.214 5.331-4.834zM174.413 29.997h-5.466c-0.186-0.584-0.315-1.262-0.36-1.962l-0.001-0.026c-1.4 1.536-3.75 2.575-6.731 2.575-5.060 0-7.409-2.485-7.409-6.099 0-6.415 4.292-7.138 10.21-7.951 2.936-0.407 3.75-0.994 3.75-2.53 0-1.446-1.446-2.304-3.75-2.304-2.665 0-3.75 1.31-4.021 3.298h-5.466c0.090-4.608 2.62-7.816 9.758-7.816 7.048 0 9.487 3.162 9.487 8.764v14.050zM208.808 29.997h-5.737v-13.463c0-2.665-1.4-4.563-3.479-4.563-2.168 0-3.75 2.033-3.75 4.744v13.282h-5.873v-13.372c0-3.569-0.949-4.472-3.524-4.472-2.349 0-3.569 1.446-3.569 4.337v13.508h-5.873v-22.227h5.512v3.253c1.491-2.936 3.569-3.84 6.505-3.84 3.027 0 4.472 0.949 6.189 3.524 1.22-2.44 3.208-3.524 6.008-3.524 4.472 0 7.59 3.253 7.59 7.409v15.405zM216.619 16.715h9.080c-0.090-3.298-2.259-4.879-4.563-4.879-2.349 0-4.292 1.807-4.518 4.879zM231.753 20.42h-15.315c0.181 3.343 2.078 5.512 4.969 5.512 1.897 0 3.569-0.949 3.976-2.485h6.054c-1.355 4.563-5.015 7.138-9.758 7.138-7.409 0-11.113-4.066-11.113-12.107 0-6.867 3.93-11.294 10.752-11.294s10.436 4.427 10.436 13.237z"></path>
</symbol>
<symbol id="icon-01" viewBox="0 0 32 32">
<path d="M11.958 27.49c-2.137 0-3.988-0.517-5.548-1.551-1.538-1.058-2.722-2.516-3.55-4.377-0.827-1.883-1.241-4.066-1.241-6.548s0.414-4.652 1.241-6.513c0.827-1.883 2.011-3.343 3.55-4.377 1.563-1.058 3.412-1.585 5.548-1.585s3.975 0.529 5.514 1.585c1.538 1.034 2.722 2.494 3.55 4.377 0.827 1.861 1.241 4.032 1.241 6.513s-0.414 4.665-1.241 6.548c-0.827 1.861-2.011 3.321-3.55 4.377-1.538 1.034-3.377 1.551-5.514 1.551zM11.958 24.94c1.403 0 2.654-0.391 3.756-1.172 1.125-0.805 1.999-1.942 2.619-3.412 0.642-1.494 0.965-3.274 0.965-5.342s-0.32-3.838-0.965-5.307c-0.62-1.47-1.494-2.597-2.619-3.377-1.016-0.754-2.295-1.207-3.68-1.207-0.027 0-0.054 0-0.080 0l0.004-0c-1.425 0-2.688 0.401-3.791 1.206-1.103 0.78-1.977 1.908-2.619 3.377s-0.965 3.239-0.965 5.307c0 2.068 0.32 3.847 0.965 5.342 0.642 1.47 1.516 2.609 2.619 3.412 1.103 0.78 2.366 1.172 3.791 1.172zM28.133 27.077v-20.884l-3.894 0.862v-1.999l4.859-2.102h1.964v24.123h-2.929z"></path>
</symbol>
<symbol id="icon-02" viewBox="0 0 32 32">
<path d="M9.144 24.787c-1.634 0-3.049-0.395-4.243-1.186-1.176-0.809-2.082-1.924-2.714-3.347-0.632-1.44-0.949-3.11-0.949-5.007s0.316-3.558 0.949-4.981c0.632-1.44 1.538-2.556 2.714-3.347 1.195-0.809 2.609-1.212 4.243-1.212s3.040 0.405 4.216 1.212c1.176 0.791 2.082 1.907 2.714 3.347 0.632 1.423 0.949 3.083 0.949 4.981s-0.316 3.567-0.949 5.007c-0.632 1.423-1.538 2.539-2.714 3.347-1.176 0.791-2.583 1.186-4.216 1.186zM9.144 22.837c1.073 0 2.029-0.299 2.872-0.896 0.86-0.616 1.528-1.485 2.003-2.609 0.491-1.143 0.738-2.504 0.738-4.085s-0.245-2.935-0.738-4.058c-0.474-1.124-1.143-1.986-2.003-2.583-0.777-0.576-1.755-0.923-2.814-0.923-0.020 0-0.041 0-0.061 0l0.003-0c-1.090 0-2.056 0.307-2.899 0.922-0.843 0.597-1.512 1.459-2.003 2.583s-0.738 2.477-0.738 4.058c0 1.581 0.245 2.942 0.738 4.085 0.491 1.124 1.16 1.995 2.003 2.609 0.843 0.597 1.809 0.896 2.899 0.896zM19.147 24.471v-1.555c1.324-1.045 2.473-2.019 3.59-3.030l-0.058 0.052c1.057-0.953 2.030-1.933 2.945-2.966l0.033-0.038c0.776-0.845 1.458-1.796 2.018-2.824l0.037-0.075c0.51-0.949 0.764-1.864 0.764-2.741 0-0.649-0.113-1.256-0.343-1.818-0.208-0.559-0.574-1.019-1.044-1.338l-0.010-0.006c-0.491-0.352-1.16-0.527-2.003-0.527-0.808 0-1.483 0.184-2.029 0.553-0.544 0.352-0.956 0.826-1.239 1.423-0.264 0.597-0.395 1.239-0.395 1.924h-2.135c0-1.212 0.256-2.249 0.764-3.11 0.51-0.879 1.205-1.545 2.082-2.003 0.836-0.432 1.825-0.686 2.873-0.686 0.037 0 0.074 0 0.11 0.001l-0.006-0c1.634 0 2.97 0.465 4.006 1.397 1.054 0.913 1.581 2.283 1.581 4.111 0 1.090-0.271 2.17-0.817 3.241-0.619 1.172-1.311 2.183-2.101 3.106l0.019-0.023c-0.857 0.996-1.744 1.9-2.686 2.742l-0.028 0.025c-0.787 0.72-1.654 1.478-2.536 2.217l-0.125 0.102h8.907v1.845h-12.175z"></path>
</symbol>
<symbol id="icon-03" viewBox="0 0 32 32">
<path d="M9.144 24.787c-1.634 0-3.049-0.395-4.243-1.186-1.176-0.809-2.082-1.924-2.714-3.347-0.632-1.44-0.949-3.11-0.949-5.007s0.316-3.558 0.949-4.981c0.632-1.44 1.538-2.556 2.714-3.347 1.195-0.809 2.609-1.212 4.243-1.212s3.040 0.405 4.216 1.212c1.176 0.791 2.082 1.907 2.714 3.347 0.632 1.423 0.949 3.083 0.949 4.981s-0.316 3.567-0.949 5.007c-0.632 1.423-1.538 2.539-2.714 3.347-1.176 0.791-2.583 1.186-4.216 1.186zM9.144 22.837c1.073 0 2.029-0.299 2.872-0.896 0.86-0.616 1.528-1.485 2.003-2.609 0.491-1.143 0.738-2.504 0.738-4.085s-0.245-2.935-0.738-4.058c-0.474-1.124-1.143-1.986-2.003-2.583-0.777-0.576-1.755-0.923-2.814-0.923-0.020 0-0.041 0-0.061 0l0.003-0c-1.090 0-2.056 0.307-2.899 0.922-0.843 0.597-1.512 1.459-2.003 2.583s-0.738 2.477-0.738 4.058c0 1.581 0.245 2.942 0.738 4.085 0.491 1.124 1.16 1.995 2.003 2.609 0.843 0.597 1.809 0.896 2.899 0.896zM25.44 24.787c-1.176 0-2.24-0.211-3.189-0.632-0.946-0.438-1.723-1.104-2.28-1.931l-0.012-0.020c-0.563-0.86-0.86-1.933-0.896-3.215h2.24c0.019 1.054 0.386 1.967 1.107 2.741 0.721 0.755 1.732 1.133 3.031 1.133s2.276-0.36 2.925-1.080c0.668-0.721 1.001-1.591 1.001-2.609 0-0.86-0.211-1.562-0.632-2.108-0.419-0.55-0.983-0.97-1.635-1.204l-0.025-0.008c-0.651-0.251-1.404-0.396-2.191-0.396-0.026 0-0.053 0-0.079 0.001l0.004-0h-1.37v-1.871h1.37c1.195 0 2.127-0.273 2.793-0.817 0.685-0.546 1.028-1.308 1.028-2.293 0-0.826-0.273-1.502-0.817-2.029-0.527-0.546-1.318-0.817-2.372-0.817-1.018 0-1.835 0.307-2.451 0.922-0.616 0.597-0.958 1.353-1.028 2.266h-2.24c0.037-0.988 0.326-1.901 0.804-2.686l-0.014 0.025c0.491-0.772 1.16-1.37 2.003-1.792 0.843-0.439 1.818-0.659 2.925-0.659 1.195 0 2.187 0.211 2.978 0.632 0.809 0.422 1.414 0.984 1.818 1.687 0.422 0.702 0.632 1.476 0.632 2.319 0 0.932-0.254 1.783-0.764 2.556-0.508 0.755-1.274 1.265-2.293 1.528 1.090 0.228 1.995 0.747 2.714 1.555 0.721 0.809 1.080 1.871 1.080 3.189 0 1.018-0.237 1.958-0.712 2.82-0.483 0.865-1.183 1.557-2.029 2.016l-0.027 0.013c-0.913 0.508-2.046 0.764-3.4 0.764z"></path>
</symbol>
<symbol id="icon-burger" viewBox="0 0 46 32">
<path fill="none" stroke="#fff" style="stroke: var(--color1, #fff)" stroke-linejoin="miter" stroke-linecap="round" stroke-miterlimit="4" stroke-width="3.4286" d="M8.671 5.073h35.329M8.671 24.467h35.329M19.602 14.77h24.398"></path>
</symbol>
<symbol id="icon-camera" viewBox="0 0 32 32">
<path d="M21 17c0 2.761-2.239 5-5 5s-5-2.239-5-5v0c0-2.761 2.239-5 5-5s5 2.239 5 5v0z"></path>
<path d="M4 8c-2.209 0-4 1.791-4 4v0 12c0 2.209 1.791 4 4 4v0h24c2.209 0 4-1.791 4-4v0-12c0-2.209-1.791-4-4-4v0h-2.344c-1.104-0-2.104-0.448-2.828-1.172l-1.656-1.656c-0.724-0.724-1.724-1.172-2.828-1.172h-4.688c-1.104 0-2.104 0.448-2.828 1.172l-1.656 1.656c-0.724 0.724-1.724 1.172-2.828 1.172h-2.344zM5 12c-0.552 0-1-0.448-1-1s0.448-1 1-1v0c0.552 0 1 0.448 1 1s-0.448 1-1 1v0zM23 17c0 3.866-3.134 7-7 7s-7-3.134-7-7v0c0-3.866 3.134-7 7-7s7 3.134 7 7v0z"></path>
</symbol>
<symbol id="icon-close" viewBox="0 0 24 24">
<path d="M5.293 6.707l5.293 5.293-5.293 5.293c-0.391 0.391-0.391 1.024 0 1.414s1.024 0.391 1.414 0l5.293-5.293 5.293 5.293c0.391 0.391 1.024 0.391 1.414 0s0.391-1.024 0-1.414l-5.293-5.293 5.293-5.293c0.391-0.391 0.391-1.024 0-1.414s-1.024-0.391-1.414 0l-5.293 5.293-5.293-5.293c-0.391-0.391-1.024-0.391-1.414 0s-0.391 1.024 0 1.414z"></path>
</symbol>
<symbol id="icon-flash-hero" viewBox="0 0 32 32">
<path d="M22.222 8l9.778 7.698-9.778 7.698v-6.364h-22.222v-2.667h22.222v-6.364z"></path>
</symbol>
<symbol id="icon-flash-hero2" viewBox="0 0 58 32">
<path d="M40 2.144l17.6 13.856-17.6 13.856v-11.456h-40v-4.8h40v-11.456z"></path>
</symbol>
<symbol id="icon-flash" viewBox="0 0 32 32">
<path stroke-linejoin="round" stroke-linecap="round" stroke-miterlimit="4" stroke-width="2.0800" d="M8 24l16-16M13.333 8h10.667v10.667"></path>
</symbol>
<symbol id="icon-star" viewBox="0 0 32 32">
<path stroke-linejoin="round" stroke-linecap="round" stroke-miterlimit="4" stroke-width="2.4" d="M16 2.667l4.12 8.346 9.213 1.347-6.666 6.493 1.573 9.174-8.24-4.334-8.24 4.334 1.573-9.174-6.666-6.493 9.213-1.347 4.12-8.346z"></path>
</symbol>
</defs>
</svg>
